<svg id="Layer_1" data-name="Layer 1" xmlns="http://www.w3.org/2000/svg" viewBox="0 0 638 329.41"><defs><style>.cls-1{fill:#da0236;}.cls-2{fill:#e80259;}.cls-3{fill:#96011d;}.cls-4{fill:#f0047f;}</style></defs><title>bKash Logo Vector</title><path class="cls-1" d="M588,490.44l-120-154,.59-1.17,156.84,18.83C613,399.59,600.66,444.41,588,490.44Z" transform="translate(-181 -335.3)"/><path class="cls-2" d="M594.27,491.63c12.57-45.66,25-90.76,37.75-137.14,38.67,54,76.56,106.88,114.46,159.78-.2.4-.4.8-.59,1.21Z" transform="translate(-181 -335.3)"/><path class="cls-1" d="M594.61,498.29l145.1,23.2.27,1.45L614.61,585.78C607.94,556.61,601.42,528.07,594.61,498.29Z" transform="translate(-181 -335.3)"/><path class="cls-3" d="M540.35,664.15c15.6-55,31.19-110,47.13-166.19a26.63,26.63,0,0,1,1.65,3.79c7.47,33.57,14.85,67.16,22.4,100.72.75,3.34,0,5.31-2.67,7.49-21.53,17.38-42.91,34.93-64.34,52.42-1,.83-2.09,1.55-3.14,2.32Z" transform="translate(-181 -335.3)"/><path class="cls-1" d="M707.6,450.53l75.26-13.59c-9.65,26.34-18.94,51.68-28.69,78.27Z" transform="translate(-181 -335.3)"/><path class="cls-2" d="M634.6,582.5,747,525.19l.91.77c-1.41,4.28-2.72,8.61-4.31,12.83-.35.91-1.66,1.66-2.69,2.08Q688.48,562,636,583.1a4.26,4.26,0,0,1-.88.15Z" transform="translate(-181 -335.3)"/><path class="cls-2" d="M818.53,469.7H776.82L788,439.24l31,29.12C818.84,468.81,818.69,469.26,818.53,469.7Z" transform="translate(-181 -335.3)"/><path class="cls-3" d="M527.25,424l-63.92-60.51c.15-.39.31-.79.46-1.19,5.39,0,10.79-.07,16.18.09.83,0,1.81,1,2.41,1.77q22.51,28.82,45,57.72a6.63,6.63,0,0,1,.69,1.5Z" transform="translate(-181 -335.3)"/><path class="cls-4" d="M181,546c.29-4.71.57-11.69.57-17.82v-83.4H194v43.34h.29c4.42-7.7,12.4-12.69,23.52-12.69,17.11,0,29.23,14.26,29.09,35.21,0,24.67-15.54,36.93-30.94,36.93-10,0-18-3.85-23.1-13h-.42L191.84,546Zm13-27.66a23.79,23.79,0,0,0,.57,4.56c2.43,8.7,9.7,14.69,18.82,14.69,13.12,0,21-10.69,21-26.52,0-13.83-7.13-25.66-20.53-25.66-8.55,0-16.54,5.84-19.1,15.4A24.25,24.25,0,0,0,194,506Z" transform="translate(-181 -335.3)"/><path d="M263.11,449.94h12.41v46.33H276c2.56-3.7,5.13-7.13,7.55-10.26l29.37-36.07h15.4l-34.79,40.77L331,546H316.29l-31.65-47.19-9.12,10.55V546H263.11Z" transform="translate(-181 -335.3)"/><path d="M380.44,546l-1-8.7H379a25.71,25.71,0,0,1-21.1,10.27c-14,0-21.1-9.84-21.1-19.82,0-16.68,14.82-25.8,41.48-25.66v-1.43c0-5.7-1.56-16-15.68-16a34.33,34.33,0,0,0-18,5.13l-2.85-8.27c5.7-3.71,14-6.13,22.66-6.13,21.1,0,26.24,14.4,26.24,28.23v25.8A96.74,96.74,0,0,0,391.85,546Zm-1.85-35.21c-13.69-.29-29.23,2.13-29.23,15.53,0,8.13,5.42,12,11.84,12a17.17,17.17,0,0,0,16.68-11.55,13.31,13.31,0,0,0,.71-4Z" transform="translate(-181 -335.3)"/><path d="M409.24,533.2a32.88,32.88,0,0,0,16.54,5c9.12,0,13.4-4.56,13.4-10.27,0-6-3.57-9.26-12.83-12.69C413.94,510.82,408.1,504,408.1,495.7c0-11.12,9-20.24,23.81-20.24a34.45,34.45,0,0,1,17,4.27l-3.13,9.13a26.88,26.88,0,0,0-14.12-4c-7.41,0-11.55,4.27-11.55,9.41,0,5.7,4.14,8.27,13.12,11.69,12,4.56,18.11,10.55,18.11,20.81,0,12.12-9.41,20.67-25.81,20.67-7.56,0-14.54-1.85-19.39-4.7Z" transform="translate(-181 -335.3)"/><path d="M467.4,444.81H480v43.05h.29a23.27,23.27,0,0,1,9-8.84,25.76,25.76,0,0,1,12.83-3.56c9.26,0,24.09,5.7,24.09,29.51V546H513.6V506.39c0-11.11-4.14-20.52-16-20.52-8.13,0-14.54,5.7-16.83,12.54a15.27,15.27,0,0,0-.85,6V546H467.4Z" transform="translate(-181 -335.3)"/></svg>